<svg xmlns="http://www.w3.org/2000/svg" viewBox="0 0 512 512">
  <defs>
    <linearGradient id="bg" x1="0" y1="0" x2="1" y2="1">
      <stop offset="0%" stop-color="#1b2a4a"/>
      <stop offset="100%" stop-color="#0c1220"/>
    </linearGradient>
    <linearGradient id="gold" x1="0" y1="0" x2="1" y2="1">
      <stop offset="0%" stop-color="#e8cd97"/>
      <stop offset="100%" stop-color="#c9a35e"/>
    </linearGradient>
  </defs>
  <rect width="512" height="512" rx="96" fill="url(#bg)"/>
  <circle cx="256" cy="256" r="168" fill="none" stroke="url(#gold)" stroke-width="10" opacity="0.5"/>
  <g fill="url(#gold)">
    <ellipse cx="196" cy="300" rx="46" ry="30"/>
    <circle cx="150" cy="292" r="20"/>
    <circle cx="168" cy="270" r="14"/>
    <circle cx="200" cy="266" r="14"/>
    <circle cx="228" cy="272" r="12"/>
  </g>
  <g fill="url(#gold)">
    <path d="M300,340 C296,300 288,260 292,220 C294,196 310,178 312,160 L332,162 C334,184 342,204 338,228 C334,258 338,300 344,340 Z"/>
    <circle cx="316" cy="140" r="24"/>
    <path d="M340,160 C368,178 384,208 380,244" stroke="url(#gold)" stroke-width="9" fill="none" stroke-linecap="round"/>
    <path d="M384,110 L378,268" stroke="url(#gold)" stroke-width="8" stroke-linecap="round"/>
    <path d="M362,108 C362,90 402,90 402,108 C402,124 380,128 380,108" stroke="url(#gold)" stroke-width="8" fill="none" stroke-linecap="round"/>
  </g>
</svg>
