<svg xmlns="http://www.w3.org/2000/svg" viewBox="0 0 1600 1000" preserveAspectRatio="xMidYMax slice">
  <defs>
    <linearGradient id="sky" x1="0" y1="0" x2="0" y2="1">
      <stop offset="0%" stop-color="#1b2a4a"/>
      <stop offset="45%" stop-color="#3d3a5c"/>
      <stop offset="70%" stop-color="#8a5a4a"/>
      <stop offset="100%" stop-color="#d9a054"/>
    </linearGradient>
    <radialGradient id="sun" cx="50%" cy="50%" r="50%">
      <stop offset="0%" stop-color="#ffe9b8" stop-opacity="0.95"/>
      <stop offset="60%" stop-color="#f2b25c" stop-opacity="0.55"/>
      <stop offset="100%" stop-color="#f2b25c" stop-opacity="0"/>
    </radialGradient>
    <linearGradient id="hillFar" x1="0" y1="0" x2="0" y2="1">
      <stop offset="0%" stop-color="#5c4a52"/>
      <stop offset="100%" stop-color="#3a2f3a"/>
    </linearGradient>
    <linearGradient id="hillMid" x1="0" y1="0" x2="0" y2="1">
      <stop offset="0%" stop-color="#3a2e33"/>
      <stop offset="100%" stop-color="#241c22"/>
    </linearGradient>
    <linearGradient id="hillNear" x1="0" y1="0" x2="0" y2="1">
      <stop offset="0%" stop-color="#20181d"/>
      <stop offset="100%" stop-color="#120d10"/>
    </linearGradient>
  </defs>

  <rect x="0" y="0" width="1600" height="1000" fill="url(#sky)"/>
  <circle cx="1180" cy="330" r="260" fill="url(#sun)"/>
  <circle cx="1180" cy="330" r="95" fill="#ffe6ab"/>

  <path d="M0,560 C220,500 380,610 620,540 C860,470 1000,560 1220,510 C1380,475 1500,520 1600,500 L1600,1000 L0,1000 Z" fill="url(#hillFar)" opacity="0.85"/>
  <path d="M0,660 C260,600 460,700 700,640 C940,580 1120,660 1360,610 C1460,590 1540,610 1600,600 L1600,1000 L0,1000 Z" fill="url(#hillMid)" opacity="0.92"/>
  <path d="M0,760 C300,720 520,800 760,750 C1000,700 1220,780 1460,730 C1520,718 1560,725 1600,715 L1600,1000 L0,1000 Z" fill="url(#hillNear)"/>

  <!-- Nota de composición: el panel de inicio de sesión cubre la franja central
       (aprox. 25%-75% del ancho), así que el pastor y el rebaño se ubican en el
       margen derecho para que sean visibles junto a la tarjeta. -->

  <g opacity="0.5" fill="#000000">
    <ellipse cx="230" cy="740" rx="18" ry="26"/>
    <path d="M230,715 L230,660" stroke="#000000" stroke-width="6"/>
  </g>

  <!-- Sheep flock -->
  <g fill="#000000">
    <g transform="translate(1300,800) scale(1.05)">
      <ellipse cx="0" cy="0" rx="34" ry="20"/>
      <circle cx="-30" cy="-4" r="13"/>
      <circle cx="-20" cy="-16" r="9"/>
      <circle cx="0" cy="-16" r="9"/>
      <circle cx="18" cy="-14" r="8"/>
      <rect x="-14" y="14" width="6" height="16" rx="2"/>
      <rect x="10" y="14" width="6" height="16" rx="2"/>
    </g>
    <g transform="translate(1400,825) scale(0.85)">
      <ellipse cx="0" cy="0" rx="34" ry="20"/>
      <circle cx="-30" cy="-4" r="13"/>
      <circle cx="-20" cy="-16" r="9"/>
      <circle cx="0" cy="-16" r="9"/>
      <rect x="-14" y="14" width="6" height="16" rx="2"/>
      <rect x="10" y="14" width="6" height="16" rx="2"/>
    </g>
    <g transform="translate(1225,832) scale(0.75)">
      <ellipse cx="0" cy="0" rx="34" ry="20"/>
      <circle cx="28" cy="-4" r="13"/>
      <circle cx="18" cy="-16" r="9"/>
      <circle cx="-2" cy="-16" r="9"/>
      <rect x="-14" y="14" width="6" height="16" rx="2"/>
      <rect x="10" y="14" width="6" height="16" rx="2"/>
    </g>
    <g transform="translate(1475,845) scale(0.6)">
      <ellipse cx="0" cy="0" rx="34" ry="20"/>
      <circle cx="-30" cy="-4" r="13"/>
      <circle cx="-20" cy="-16" r="9"/>
      <rect x="-14" y="14" width="6" height="16" rx="2"/>
      <rect x="10" y="14" width="6" height="16" rx="2"/>
    </g>
  </g>

  <!-- Shepherd -->
  <g transform="translate(1330,650)" fill="#000000">
    <path d="M0,190 C-6,140 -14,100 -10,60 C-8,38 6,20 8,4 L26,6 C28,26 34,44 30,66 C26,96 30,140 34,190 Z"/>
    <ellipse cx="12" cy="-14" rx="17" ry="19"/>
    <path d="M-14,10 C-16,-18 4,-40 24,-38 C46,-36 56,-12 50,10 C44,-2 34,-8 24,-8 C10,-8 -4,0 -14,10 Z"/>
    <path d="M-4,190 L-16,240 L-4,244 L10,196 Z"/>
    <path d="M22,190 L30,242 L42,240 L30,192 Z"/>
    <path d="M30,10 C48,26 58,50 56,80" stroke="#000000" stroke-width="7" fill="none" stroke-linecap="round"/>
    <path d="M58,-70 L52,110" stroke="#000000" stroke-width="6" stroke-linecap="round"/>
    <path d="M40,-70 C40,-84 74,-84 74,-70 C74,-58 58,-54 58,-70" stroke="#000000" stroke-width="6" fill="none" stroke-linecap="round"/>
  </g>
</svg>
